<mxfile host="app.diagrams.net" agent="Mozilla/5.0 (Windows NT 10.0; Win64; x64; rv:135.0) Gecko/20100101 Firefox/135.0" version="26.0.16">
  <diagram name="Page-1" id="jyKlAJJ9NLUasiOqqjGp">
    <mxGraphModel dx="1834" dy="820" grid="1" gridSize="10" guides="1" tooltips="1" connect="1" arrows="1" fold="1" page="0" pageScale="1" pageWidth="850" pageHeight="1100" math="0" shadow="0">
      <root>
        <mxCell id="0" />
        <mxCell id="1" parent="0" />
        <mxCell id="ibCAYDNQj_hkH_2NKTYt-11" value="gg : Gombasz" style="shape=umlLifeline;perimeter=lifelinePerimeter;whiteSpace=wrap;html=1;container=1;dropTarget=0;collapsible=0;recursiveResize=0;outlineConnect=0;portConstraint=eastwest;newEdgeStyle={&quot;curved&quot;:0,&quot;rounded&quot;:0};" parent="1" vertex="1">
          <mxGeometry x="80" y="160" width="100" height="520" as="geometry" />
        </mxCell>
        <mxCell id="ibCAYDNQj_hkH_2NKTYt-12" value="" style="html=1;points=[[0,0,0,0,5],[0,1,0,0,-5],[1,0,0,0,5],[1,1,0,0,-5]];perimeter=orthogonalPerimeter;outlineConnect=0;targetShapes=umlLifeline;portConstraint=eastwest;newEdgeStyle={&quot;curved&quot;:0,&quot;rounded&quot;:0};" parent="ibCAYDNQj_hkH_2NKTYt-11" vertex="1">
          <mxGeometry x="45" y="90" width="10" height="360" as="geometry" />
        </mxCell>
        <mxCell id="ibCAYDNQj_hkH_2NKTYt-14" value="te : TektonElem" style="shape=umlLifeline;perimeter=lifelinePerimeter;whiteSpace=wrap;html=1;container=1;dropTarget=0;collapsible=0;recursiveResize=0;outlineConnect=0;portConstraint=eastwest;newEdgeStyle={&quot;curved&quot;:0,&quot;rounded&quot;:0};" parent="1" vertex="1">
          <mxGeometry x="200" y="160" width="100" height="520" as="geometry" />
        </mxCell>
        <mxCell id="ibCAYDNQj_hkH_2NKTYt-27" value="" style="html=1;points=[[0,0,0,0,5],[0,1,0,0,-5],[1,0,0,0,5],[1,1,0,0,-5]];perimeter=orthogonalPerimeter;outlineConnect=0;targetShapes=umlLifeline;portConstraint=eastwest;newEdgeStyle={&quot;curved&quot;:0,&quot;rounded&quot;:0};" parent="ibCAYDNQj_hkH_2NKTYt-14" vertex="1">
          <mxGeometry x="45" y="150" width="10" height="20" as="geometry" />
        </mxCell>
        <mxCell id="EnPGFRxMJNnfapPllMnS-64" value="" style="html=1;points=[[0,0,0,0,5],[0,1,0,0,-5],[1,0,0,0,5],[1,1,0,0,-5]];perimeter=orthogonalPerimeter;outlineConnect=0;targetShapes=umlLifeline;portConstraint=eastwest;newEdgeStyle={&quot;curved&quot;:0,&quot;rounded&quot;:0};" parent="ibCAYDNQj_hkH_2NKTYt-14" vertex="1">
          <mxGeometry x="45" y="399.43000000000006" width="10" height="30" as="geometry" />
        </mxCell>
        <mxCell id="ibCAYDNQj_hkH_2NKTYt-28" value="GetPlaceable(mit)" style="html=1;verticalAlign=bottom;endArrow=block;curved=0;rounded=0;entryX=0;entryY=0;entryDx=0;entryDy=5;entryPerimeter=0;" parent="1" source="ibCAYDNQj_hkH_2NKTYt-12" target="ibCAYDNQj_hkH_2NKTYt-27" edge="1">
          <mxGeometry relative="1" as="geometry">
            <mxPoint x="140" y="310" as="sourcePoint" />
            <mxPoint x="325" y="310" as="targetPoint" />
          </mxGeometry>
        </mxCell>
        <mxCell id="ibCAYDNQj_hkH_2NKTYt-33" value="t : Tekton" style="shape=umlLifeline;perimeter=lifelinePerimeter;whiteSpace=wrap;html=1;container=1;dropTarget=0;collapsible=0;recursiveResize=0;outlineConnect=0;portConstraint=eastwest;newEdgeStyle={&quot;curved&quot;:0,&quot;rounded&quot;:0};" parent="1" vertex="1">
          <mxGeometry x="320" y="160" width="100" height="520" as="geometry" />
        </mxCell>
        <mxCell id="EnPGFRxMJNnfapPllMnS-70" value="" style="html=1;points=[[0,0,0,0,5],[0,1,0,0,-5],[1,0,0,0,5],[1,1,0,0,-5]];perimeter=orthogonalPerimeter;outlineConnect=0;targetShapes=umlLifeline;portConstraint=eastwest;newEdgeStyle={&quot;curved&quot;:0,&quot;rounded&quot;:0};" parent="ibCAYDNQj_hkH_2NKTYt-33" vertex="1">
          <mxGeometry x="-75" y="339.43" width="10" height="20.57" as="geometry" />
        </mxCell>
        <mxCell id="EnPGFRxMJNnfapPllMnS-71" value="GetHatas()" style="html=1;verticalAlign=bottom;endArrow=block;curved=0;rounded=0;entryX=0;entryY=0;entryDx=0;entryDy=5;entryPerimeter=0;" parent="ibCAYDNQj_hkH_2NKTYt-33" source="EnPGFRxMJNnfapPllMnS-70" target="EnPGFRxMJNnfapPllMnS-72" edge="1">
          <mxGeometry relative="1" as="geometry">
            <mxPoint x="-25" y="344.43" as="sourcePoint" />
          </mxGeometry>
        </mxCell>
        <mxCell id="EnPGFRxMJNnfapPllMnS-72" value="" style="html=1;points=[[0,0,0,0,5],[0,1,0,0,-5],[1,0,0,0,5],[1,1,0,0,-5]];perimeter=orthogonalPerimeter;outlineConnect=0;targetShapes=umlLifeline;portConstraint=eastwest;newEdgeStyle={&quot;curved&quot;:0,&quot;rounded&quot;:0};" parent="ibCAYDNQj_hkH_2NKTYt-33" vertex="1">
          <mxGeometry x="45" y="349.43" width="10" height="30.57" as="geometry" />
        </mxCell>
        <mxCell id="EnPGFRxMJNnfapPllMnS-1" value="alt" style="shape=umlFrame;whiteSpace=wrap;html=1;pointerEvents=0;" parent="1" vertex="1">
          <mxGeometry x="-90" y="220" width="530" height="420" as="geometry" />
        </mxCell>
        <mxCell id="EnPGFRxMJNnfapPllMnS-2" value="[fonalat növeszt]" style="text;html=1;align=center;verticalAlign=middle;resizable=0;points=[];autosize=1;strokeColor=none;fillColor=none;" parent="1" vertex="1">
          <mxGeometry x="10" y="340" width="110" height="30" as="geometry" />
        </mxCell>
        <mxCell id="EnPGFRxMJNnfapPllMnS-4" value="" style="html=1;points=[[0,0,0,0,5],[0,1,0,0,-5],[1,0,0,0,5],[1,1,0,0,-5]];perimeter=orthogonalPerimeter;outlineConnect=0;targetShapes=umlLifeline;portConstraint=eastwest;newEdgeStyle={&quot;curved&quot;:0,&quot;rounded&quot;:0};" parent="1" vertex="1">
          <mxGeometry x="365" y="320" width="10" height="30" as="geometry" />
        </mxCell>
        <mxCell id="EnPGFRxMJNnfapPllMnS-5" value="GetHatas()" style="html=1;verticalAlign=bottom;endArrow=block;curved=0;rounded=0;entryX=0;entryY=0;entryDx=0;entryDy=5;entryPerimeter=0;" parent="1" source="ibCAYDNQj_hkH_2NKTYt-27" target="EnPGFRxMJNnfapPllMnS-4" edge="1">
          <mxGeometry relative="1" as="geometry">
            <mxPoint x="295" y="315" as="sourcePoint" />
          </mxGeometry>
        </mxCell>
        <mxCell id="EnPGFRxMJNnfapPllMnS-6" value="" style="html=1;verticalAlign=bottom;endArrow=open;dashed=1;endSize=8;curved=0;rounded=0;exitX=0;exitY=1;exitDx=0;exitDy=-5;exitPerimeter=0;" parent="1" source="EnPGFRxMJNnfapPllMnS-4" target="ibCAYDNQj_hkH_2NKTYt-12" edge="1">
          <mxGeometry relative="1" as="geometry">
            <mxPoint x="140" y="340" as="targetPoint" />
            <mxPoint x="362.5" y="340" as="sourcePoint" />
          </mxGeometry>
        </mxCell>
        <mxCell id="EnPGFRxMJNnfapPllMnS-16" value="SetPlaceable(mit)" style="html=1;verticalAlign=bottom;endArrow=block;curved=0;rounded=0;entryX=0;entryY=0;entryDx=0;entryDy=5;entryPerimeter=0;" parent="1" source="ibCAYDNQj_hkH_2NKTYt-12" target="EnPGFRxMJNnfapPllMnS-18" edge="1">
          <mxGeometry width="80" relative="1" as="geometry">
            <mxPoint x="140" y="370" as="sourcePoint" />
            <mxPoint x="245" y="370" as="targetPoint" />
          </mxGeometry>
        </mxCell>
        <mxCell id="EnPGFRxMJNnfapPllMnS-18" value="" style="html=1;points=[[0,0,0,0,5],[0,1,0,0,-5],[1,0,0,0,5],[1,1,0,0,-5]];perimeter=orthogonalPerimeter;outlineConnect=0;targetShapes=umlLifeline;portConstraint=eastwest;newEdgeStyle={&quot;curved&quot;:0,&quot;rounded&quot;:0};" parent="1" vertex="1">
          <mxGeometry x="245" y="370" width="10" height="30" as="geometry" />
        </mxCell>
        <mxCell id="EnPGFRxMJNnfapPllMnS-20" value="" style="html=1;verticalAlign=bottom;endArrow=open;dashed=1;endSize=8;curved=0;rounded=0;exitX=0;exitY=1;exitDx=0;exitDy=-5;exitPerimeter=0;" parent="1" source="EnPGFRxMJNnfapPllMnS-18" target="ibCAYDNQj_hkH_2NKTYt-12" edge="1">
          <mxGeometry relative="1" as="geometry">
            <mxPoint x="245" y="400" as="sourcePoint" />
            <mxPoint x="140" y="400" as="targetPoint" />
          </mxGeometry>
        </mxCell>
        <mxCell id="EnPGFRxMJNnfapPllMnS-74" value="" style="html=1;verticalAlign=bottom;endArrow=open;dashed=1;endSize=8;rounded=0;exitX=0;exitY=1;exitDx=0;exitDy=-5;exitPerimeter=0;" parent="1" source="EnPGFRxMJNnfapPllMnS-72" target="ibCAYDNQj_hkH_2NKTYt-12" edge="1">
          <mxGeometry relative="1" as="geometry">
            <mxPoint x="140" y="530" as="targetPoint" />
            <mxPoint x="365" y="534.19" as="sourcePoint" />
          </mxGeometry>
        </mxCell>
        <mxCell id="EnPGFRxMJNnfapPllMnS-76" value="[gombatestet növeszt]" style="text;html=1;align=center;verticalAlign=middle;resizable=0;points=[];autosize=1;strokeColor=none;fillColor=none;" parent="1" vertex="1">
          <mxGeometry x="-5" y="500" width="140" height="30" as="geometry" />
        </mxCell>
        <mxCell id="bTekbIeyAkiH0Mu_NAsA-1" value="Játékos" style="shape=umlLifeline;perimeter=lifelinePerimeter;whiteSpace=wrap;html=1;container=1;dropTarget=0;collapsible=0;recursiveResize=0;outlineConnect=0;portConstraint=eastwest;newEdgeStyle={&quot;curved&quot;:0,&quot;rounded&quot;:0};participant=umlActor;" parent="1" vertex="1">
          <mxGeometry x="-9" y="160" width="20" height="520" as="geometry" />
        </mxCell>
        <mxCell id="bTekbIeyAkiH0Mu_NAsA-3" value="" style="html=1;points=[[0,0,0,0,5],[0,1,0,0,-5],[1,0,0,0,5],[1,1,0,0,-5]];perimeter=orthogonalPerimeter;outlineConnect=0;targetShapes=umlLifeline;portConstraint=eastwest;newEdgeStyle={&quot;curved&quot;:0,&quot;rounded&quot;:0};" parent="bTekbIeyAkiH0Mu_NAsA-1" vertex="1">
          <mxGeometry x="5" y="50" width="10" height="460" as="geometry" />
        </mxCell>
        <mxCell id="bTekbIeyAkiH0Mu_NAsA-4" value="FonalNov(t)" style="html=1;verticalAlign=bottom;endArrow=block;curved=0;rounded=0;entryX=0;entryY=0;entryDx=0;entryDy=5;entryPerimeter=0;" parent="1" source="bTekbIeyAkiH0Mu_NAsA-3" target="ibCAYDNQj_hkH_2NKTYt-12" edge="1">
          <mxGeometry width="80" relative="1" as="geometry">
            <mxPoint x="40" y="290" as="sourcePoint" />
            <mxPoint x="120" y="290" as="targetPoint" />
          </mxGeometry>
        </mxCell>
        <mxCell id="EnPGFRxMJNnfapPllMnS-75" value="" style="endArrow=none;dashed=1;html=1;rounded=0;exitX=0;exitY=0.498;exitDx=0;exitDy=0;exitPerimeter=0;entryX=1.001;entryY=0.525;entryDx=0;entryDy=0;entryPerimeter=0;" parent="1" source="EnPGFRxMJNnfapPllMnS-1" edge="1">
          <mxGeometry width="50" height="50" relative="1" as="geometry">
            <mxPoint x="-3.519999999999927" y="430" as="sourcePoint" />
            <mxPoint x="440.00000000000006" y="430" as="targetPoint" />
          </mxGeometry>
        </mxCell>
        <mxCell id="EnPGFRxMJNnfapPllMnS-73" value="GetPlaceable(mit)" style="html=1;verticalAlign=bottom;endArrow=block;curved=0;rounded=0;entryX=0;entryY=0;entryDx=0;entryDy=5;entryPerimeter=0;" parent="1" source="ibCAYDNQj_hkH_2NKTYt-12" target="EnPGFRxMJNnfapPllMnS-70" edge="1">
          <mxGeometry relative="1" as="geometry">
            <mxPoint x="140" y="499.43" as="sourcePoint" />
            <mxPoint x="325" y="499.43" as="targetPoint" />
          </mxGeometry>
        </mxCell>
        <mxCell id="EnPGFRxMJNnfapPllMnS-62" value="SetPlaceable(mit)" style="html=1;verticalAlign=bottom;endArrow=block;curved=0;rounded=0;entryX=0;entryY=0;entryDx=0;entryDy=5;entryPerimeter=0;" parent="1" source="ibCAYDNQj_hkH_2NKTYt-12" target="EnPGFRxMJNnfapPllMnS-64" edge="1">
          <mxGeometry width="80" relative="1" as="geometry">
            <mxPoint x="140" y="559.4300000000001" as="sourcePoint" />
            <mxPoint x="245" y="559.4300000000001" as="targetPoint" />
          </mxGeometry>
        </mxCell>
        <mxCell id="EnPGFRxMJNnfapPllMnS-63" value="" style="html=1;verticalAlign=bottom;endArrow=open;dashed=1;endSize=8;curved=0;rounded=0;exitX=0;exitY=1;exitDx=0;exitDy=-5;exitPerimeter=0;" parent="1" source="EnPGFRxMJNnfapPllMnS-64" target="ibCAYDNQj_hkH_2NKTYt-12" edge="1">
          <mxGeometry relative="1" as="geometry">
            <mxPoint x="245" y="589.4300000000001" as="sourcePoint" />
            <mxPoint x="140" y="589.4300000000001" as="targetPoint" />
          </mxGeometry>
        </mxCell>
      </root>
    </mxGraphModel>
  </diagram>
</mxfile>
